<?xml version="1.0" encoding="utf-8"?>
<!DOCTYPE svg PUBLIC "-//W3C//DTD SVG 1.1//EN" "http://www.w3.org/Graphics/SVG/1.1/DTD/svg11.dtd">
<svg version="1.1" xmlns="http://www.w3.org/2000/svg" xmlns:xlink="http://www.w3.org/1999/xlink" x="0px" y="0px"
	 viewBox="0 0 780 660" enable-background="new 0 0 780 660" xml:space="preserve">
<g id="path">
</g>
<g id="main">
	<g>
		<g>
			<path d="M96.7,403.2c-0.7,0-1.3,0-2,0c-20.7-0.4-40-8.6-54.5-22.9c-14.7-14.5-22.7-33.9-22.7-54.5c0-42.7,34.8-77.5,77.5-77.5
				c24.5,0,47.7,11.8,62.3,31.4l-17.7,13.1c-10.6-14.3-26.9-22.5-44.6-22.5c-30.6,0-55.5,24.9-55.5,55.5c0,30.5,24.5,54.8,55.7,55.5
				c15.4,0.3,28.2-4.1,37.1-12.8c6.8-6.7,11.2-15.7,13-26.5H94.9v-22H168v11c0,21.7-7.1,40.1-20.4,53.2
				C134.8,396.6,117.2,403.2,96.7,403.2z"/>
		</g>
	</g>
	<g>
		<g>
			<polygon points="319.6,646.2 232.4,646.2 232.4,511 313,511 313,533 254.4,533 254.4,624.2 319.6,624.2 			"/>
		</g>
		<g>
			<rect x="243.4" y="564.8" width="61" height="22"/>
		</g>
	</g>
	<polygon points="734.4,253.7 646,366 646,253.7 624,253.7 624,397.7 649,397.7 762.4,253.7 	"/>
	<polygon points="131.5,511 131.5,613.2 40.2,511 17.4,511 17.4,645.9 39.4,645.9 39.4,543.1 131.5,646.2 153.5,646.2 153.5,511
		"/>
	<polygon points="567.1,511 529.3,612.1 492.1,520.2 471.1,520.2 433.8,612.1 396,511 371.9,511 422.3,645.9 444.5,645.9
		481.6,554.6 518.7,645.9 540.8,645.9 591.3,511 	"/>
	<g>
		<path fill="#C60000" d="M264.4,470.4c-1.9,0-3.8-0.5-5.5-1.5c-5.3-3-7.1-9.8-4-15l39.7-68.7c3-5.3,9.8-7.1,15-4
			c5.3,3,7.1,9.8,4,15L274,464.8C271.9,468.4,268.2,470.4,264.4,470.4z"/>
	</g>
	<path d="M695.8,566.7c-21-1.5-28.5-10.8-28.5-18.4c0-10.7,9.4-18.2,25.9-18.3c20,0,28.7,11.7,31.5,16.2l18-10.4
		c-5-9.5-18.2-26.8-48.6-26.8c-33.8,0-48.7,19.8-48.9,39.3c-0.2,23,19.4,39.2,48.9,40.3c10.4,0.4,18.7,3,24.1,6.5
		c4.9,3.2,7.1,7.1,7.1,12.8c-0.1,17.2-20.8,18-29.3,18c-25.4,0-37.7-21.7-40-24l-18.4,10.6c4.4,8.3,21.2,34.8,57.2,34.8
		c38.7,0,52.5-20.4,52.5-39.5C747.3,596.7,742.3,570.1,695.8,566.7z"/>
	<path d="M390,81.9c88.4,0,160,71.6,160,160c0,88.4-71.6,160-160,160s-160-71.6-160-160C230,153.5,301.6,81.9,390,81.9 M390,59.9
		c-24.6,0-48.4,4.8-70.8,14.3c-21.7,9.2-41.1,22.3-57.8,39c-16.7,16.7-29.8,36.2-39,57.8c-9.5,22.5-14.3,46.3-14.3,70.8
		c0,24.6,4.8,48.4,14.3,70.8c9.2,21.7,22.3,41.1,39,57.8c16.7,16.7,36.2,29.8,57.8,39c22.5,9.5,46.3,14.3,70.8,14.3
		s48.4-4.8,70.8-14.3c21.7-9.2,41.1-22.3,57.8-39c16.7-16.7,29.8-36.2,39-57.8c9.5-22.5,14.3-46.3,14.3-70.8
		c0-24.6-4.8-48.4-14.3-70.8c-9.2-21.7-22.3-41.1-39-57.8c-16.7-16.7-36.2-29.8-57.8-39C438.4,64.7,414.6,59.9,390,59.9L390,59.9z"
		/>
	<g>
		<path fill="#C60000" d="M464.5,123.9c-1.9,0-3.8-0.5-5.5-1.5c-5.3-3-7.1-9.8-4-15L506,18.9c3-5.3,9.8-7.1,15-4c5.3,3,7.1,9.8,4,15
			L474,118.4C472,121.9,468.3,123.9,464.5,123.9z"/>
	</g>
</g>
<g id="earth">
</g>
<g id="axis">
</g>
<g id="guides">
</g>
</svg>
