<?xml version="1.0" encoding="utf-8"?>
<!DOCTYPE svg PUBLIC "-//W3C//DTD SVG 1.1//EN" "http://www.w3.org/Graphics/SVG/1.1/DTD/svg11.dtd">
<svg version="1.1" xmlns="http://www.w3.org/2000/svg" xmlns:xlink="http://www.w3.org/1999/xlink" x="0px" y="0px"
	 viewBox="0 0 260.8 147.4" enable-background="new 0 0 260.8 147.4" xml:space="preserve">
<g id="slash">
</g>
<g id="text">
	<text transform="matrix(1 0 0 1 113.9925 133.6667)" font-family="'FantasqueSansMono-Regular'" font-size="8">g0v.news</text>
	<g>
		<path fill="#010101" d="M146.5,135.3h-32.4c-0.2,0-0.4-0.2-0.4-0.4s0.2-0.4,0.4-0.4h32.4c0.2,0,0.4,0.2,0.4,0.4
			S146.7,135.3,146.5,135.3z"/>
	</g>
	<text transform="matrix(1 0 0 1 48.3809 17.5834)" font-family="'FantasqueSansMono-Regular'" font-size="8">Connecting the world of/with civic tech.</text>
</g>
<g id="facebook">
</g>
<g id="logo">
	<g>
		<g>
			<g>
				<path fill="#010101" d="M104.2,80.2c-0.1,0-0.1,0-0.2,0c-1.8,0-3.6-0.8-4.9-2.1c-1.3-1.3-2-3-2-4.9c0-3.8,3.1-6.9,6.9-6.9
					c2.2,0,4.3,1.1,5.6,2.8l-1.6,1.2c-0.9-1.3-2.4-2-4-2c-2.7,0-5,2.2-5,5c0,2.7,2.2,4.9,5,5c1.4,0,2.5-0.4,3.3-1.1
					c0.6-0.6,1-1.4,1.2-2.4H104v-2h6.5v1c0,1.9-0.6,3.6-1.8,4.8C107.6,79.6,106,80.2,104.2,80.2z"/>
			</g>
		</g>
		<g>
			<g>
				<polygon fill="#010101" points="124.1,101.9 116.3,101.9 116.3,89.8 123.5,89.8 123.5,91.8 118.3,91.8 118.3,100 124.1,100
					"/>
			</g>
			<g>
				<rect x="117.3" y="94.7" fill="#010101" width="5.5" height="2"/>
			</g>
		</g>
		<polygon fill="#010101" points="161.2,66.8 153.3,76.9 153.3,66.8 151.3,66.8 151.3,79.7 153.6,79.7 163.7,66.8 		"/>
		<polygon fill="#010101" points="107.3,89.8 107.3,99 99.1,89.8 97.1,89.8 97.1,101.9 99.1,101.9 99.1,92.7 107.3,101.9
			109.3,101.9 109.3,89.8 		"/>
		<polygon fill="#010101" points="146.2,89.8 142.9,98.9 139.5,90.7 137.7,90.7 134.3,98.9 130.9,89.8 128.8,89.8 133.3,101.9
			135.3,101.9 138.6,93.7 141.9,101.9 143.9,101.9 148.4,89.8 		"/>
		<g>
			<path fill="#C42026" d="M119.2,86.2c-0.2,0-0.3,0-0.5-0.1c-0.5-0.3-0.6-0.9-0.4-1.3l3.5-6.1c0.3-0.5,0.9-0.6,1.3-0.4
				c0.5,0.3,0.6,0.9,0.4,1.3l-3.5,6.1C119.8,86,119.5,86.2,119.2,86.2z"/>
		</g>
		<path fill="#010101" d="M157.7,94.8c-1.9-0.1-2.5-1-2.5-1.6c0-1,0.8-1.6,2.3-1.6c1.8,0,2.6,1,2.8,1.4l1.6-0.9
			c-0.4-0.9-1.6-2.4-4.3-2.4c-3,0-4.4,1.8-4.4,3.5c0,2.1,1.7,3.5,4.4,3.6c0.9,0,1.7,0.3,2.2,0.6c0.4,0.3,0.6,0.6,0.6,1.1
			c0,1.5-1.9,1.6-2.6,1.6c-2.3,0-3.4-1.9-3.6-2.1l-1.6,1c0.4,0.7,1.9,3.1,5.1,3.1c3.5,0,4.7-1.8,4.7-3.5
			C162.4,97.5,161.9,95.1,157.7,94.8z"/>
		<path fill="#010101" d="M130.4,51.5c7.9,0,14.3,6.4,14.3,14.3c0,7.9-6.4,14.3-14.3,14.3c-7.9,0-14.3-6.4-14.3-14.3
			C116.1,57.9,122.5,51.5,130.4,51.5 M130.4,49.5c-2.2,0-4.3,0.4-6.3,1.3c-1.9,0.8-3.7,2-5.2,3.5c-1.5,1.5-2.7,3.2-3.5,5.2
			c-0.8,2-1.3,4.1-1.3,6.3c0,2.2,0.4,4.3,1.3,6.3c0.8,1.9,2,3.7,3.5,5.2c1.5,1.5,3.2,2.7,5.2,3.5c2,0.8,4.1,1.3,6.3,1.3
			c2.2,0,4.3-0.4,6.3-1.3c1.9-0.8,3.7-2,5.2-3.5c1.5-1.5,2.7-3.2,3.5-5.2c0.8-2,1.3-4.1,1.3-6.3c0-2.2-0.4-4.3-1.3-6.3
			c-0.8-1.9-2-3.7-3.5-5.2c-1.5-1.5-3.2-2.7-5.2-3.5C134.7,49.9,132.6,49.5,130.4,49.5L130.4,49.5z"/>
		<g>
			<path fill="#C42026" d="M137.1,55.2c-0.2,0-0.3,0-0.5-0.1c-0.5-0.3-0.6-0.9-0.4-1.3l4.6-7.9c0.3-0.5,0.9-0.6,1.3-0.4
				c0.5,0.3,0.6,0.9,0.4,1.3l-4.6,7.9C137.7,55.1,137.4,55.2,137.1,55.2z"/>
		</g>
	</g>
</g>
<g id="guides">
</g>
</svg>
