<?xml version="1.0" encoding="utf-8"?>
<!DOCTYPE svg PUBLIC "-//W3C//DTD SVG 1.1//EN" "http://www.w3.org/Graphics/SVG/1.1/DTD/svg11.dtd">
<svg version="1.1" xmlns="http://www.w3.org/2000/svg" xmlns:xlink="http://www.w3.org/1999/xlink" x="0px" y="0px"
	 viewBox="0 0 260.8 147.4" enable-background="new 0 0 260.8 147.4" xml:space="preserve">
<g id="slash">
	<polygon fill="#C42026" points="190,0 104.9,147.4 151.1,147.4 236.2,0 	"/>
</g>
<g id="text">
	<text transform="matrix(1 0 0 1 14.1731 31.3177)" font-family="'FantasqueSansMono-Regular'" font-size="22">Your Name</text>
	<g>
		<text transform="matrix(1 0 0 1 14.1732 101.3665)"><tspan x="0" y="0" font-family="'FantasqueSansMono-Regular'" font-size="11">you@g0v.tw</tspan><tspan x="0" y="15" font-family="'FantasqueSansMono-Regular'" font-size="11">@you</tspan><tspan x="0" y="29.2" font-family="'FantasqueSansMono-Regular'" font-size="11">+</tspan><tspan x="5.8" y="30" font-family="'FantasqueSansMono-Regular'" font-size="11">886</tspan><tspan x="23.2" y="29.2" font-family="'FantasqueSansMono-Regular'" font-size="11">-</tspan><tspan x="29" y="30" font-family="'FantasqueSansMono-Regular'" font-size="11">987654321</tspan></text>
	</g>
</g>
<g id="facebook">
	<text transform="matrix(1 0 0 1 44.5969 115.0833)" fill="#231F20" font-family="'FantasqueSansMono-Regular'" font-size="8">facebook</text>

		<line fill="none" stroke="#000000" stroke-width="0.75" stroke-linecap="round" stroke-linejoin="round" stroke-miterlimit="10" x1="44.6" y1="116.3" x2="77.2" y2="116.3"/>
</g>
<g id="logo">
	<g>
		<g>
			<path fill="#C42026" d="M219.3,133.3c-0.2,0-0.3,0-0.5-0.1c-0.5-0.3-0.6-0.9-0.4-1.3l3.5-6.1c0.3-0.5,0.9-0.6,1.3-0.4
				c0.5,0.3,0.6,0.9,0.4,1.3l-3.5,6.1C219.9,133.1,219.6,133.3,219.3,133.3z"/>
		</g>
		<path d="M230.5,98.5c7.9,0,14.3,6.4,14.3,14.3s-6.4,14.3-14.3,14.3c-7.9,0-14.3-6.4-14.3-14.3S222.6,98.5,230.5,98.5 M230.5,96.6
			c-2.2,0-4.3,0.4-6.3,1.3c-1.9,0.8-3.7,2-5.2,3.5s-2.7,3.2-3.5,5.2c-0.8,2-1.3,4.1-1.3,6.3s0.4,4.3,1.3,6.3c0.8,1.9,2,3.7,3.5,5.2
			c1.5,1.5,3.2,2.7,5.2,3.5c2,0.8,4.1,1.3,6.3,1.3c2.2,0,4.3-0.4,6.3-1.3c1.9-0.8,3.7-2,5.2-3.5c1.5-1.5,2.7-3.2,3.5-5.2
			c0.8-2,1.3-4.1,1.3-6.3s-0.4-4.3-1.3-6.3c-0.8-1.9-2-3.7-3.5-5.2c-1.5-1.5-3.2-2.7-5.2-3.5C234.8,97,232.7,96.6,230.5,96.6
			L230.5,96.6z"/>
		<g>
			<path fill="#C42026" d="M237.2,102.3c-0.2,0-0.3,0-0.5-0.1c-0.5-0.3-0.6-0.9-0.4-1.3l4.6-7.9c0.3-0.5,0.9-0.6,1.3-0.4
				c0.5,0.3,0.6,0.9,0.4,1.3l-4.6,7.9C237.8,102.1,237.5,102.3,237.2,102.3z"/>
		</g>
	</g>
</g>
<g id="guides">
</g>
</svg>
